<?xml version="1.0" encoding="UTF-8" standalone="no"?>
<!-- Generator: Adobe Illustrator 18.0.0, SVG Export Plug-In . SVG Version: 6.00 Build 0)  -->

<svg
   xmlns:dc="http://purl.org/dc/elements/1.1/"
   xmlns:cc="http://creativecommons.org/ns#"
   xmlns:rdf="http://www.w3.org/1999/02/22-rdf-syntax-ns#"
   xmlns:svg="http://www.w3.org/2000/svg"
   xmlns="http://www.w3.org/2000/svg"
   xmlns:sodipodi="http://sodipodi.sourceforge.net/DTD/sodipodi-0.dtd"
   xmlns:inkscape="http://www.inkscape.org/namespaces/inkscape"
   version="1.1"
   id="Capa_1"
   x="0px"
   y="0px"
   viewBox="0 0 32.000001 32.000001"
   xml:space="preserve"
   sodipodi:docname="pencil-drawing.svg"
   width="32"
   height="32"
   inkscape:version="0.92.1 r15371"><metadata
     id="metadata39"><rdf:RDF><cc:Work
         rdf:about=""><dc:format>image/svg+xml</dc:format><dc:type
           rdf:resource="http://purl.org/dc/dcmitype/StillImage" /><dc:title></dc:title></cc:Work></rdf:RDF></metadata><defs
     id="defs37" /><sodipodi:namedview
     pagecolor="#ffffff"
     bordercolor="#666666"
     borderopacity="1"
     objecttolerance="10"
     gridtolerance="10"
     guidetolerance="10"
     inkscape:pageopacity="0"
     inkscape:pageshadow="2"
     inkscape:window-width="1366"
     inkscape:window-height="705"
     id="namedview35"
     showgrid="false"
     borderlayer="true"
     inkscape:zoom="11.749211"
     inkscape:cx="17.06612"
     inkscape:cy="17.881392"
     inkscape:window-x="-8"
     inkscape:window-y="-8"
     inkscape:window-maximized="1"
     inkscape:current-layer="Capa_1" /><path
     d="M 12.776895,25.887681 30.165866,8.5002156 c 0.422759,-0.4230103 0.422759,-1.1085354 0,-1.5314201 L 23.976816,0.77780015 C 23.773405,0.57501623 23.498153,0.46057382 23.210917,0.46057382 c -0.287612,0 -0.561608,0.11444241 -0.765019,0.31722633 L 5.0568641,18.167211 C 4.9394723,18.2841 4.8516332,18.425773 4.7977997,18.582567 l -3.2228966,9.411445 c -0.1335783,0.391074 -0.031241,0.824186 0.2600684,1.116127 0.2044152,0.205357 0.4799179,0.315155 0.7610045,0.316222 0.034447,0.06532 0.085895,0.126489 0.1618752,0.179192 0.5567152,0.38844 1.1394052,0.689478 1.7333887,0.953186 2.767762,1.22693 5.8782871,1.186462 8.8847831,0.515053 2.275861,-0.509531 4.433138,-1.413652 6.651213,-2.119004 3.019484,-0.960776 6.308448,-1.422185 9.445325,-1.790546 0.694246,-0.08194 0.578925,-1.15873 -0.115446,-1.077227 -4.267246,0.50194 -8.456378,1.357435 -12.503147,2.805658 -3.404285,1.21683 -7.3102587,2.187645 -10.7973645,1.129679 C 5.3120373,29.797232 4.587424,29.475489 3.8911076,29.047459 l 8.4718114,-2.900713 c 0.154912,-0.05415 0.298655,-0.142238 0.413976,-0.259065 z M 12.225325,23.377603 11.075882,22.228976 26.722053,6.5877599 27.867858,7.7343172 Z M 23.210917,3.0754322 24.359294,4.2238717 8.7150682,19.868727 7.5664398,18.719659 Z M 6.2155302,25.961969 4.9820123,24.728953 6.393594,20.608398 l 3.941487,3.942491 z"
     id="path2"
     inkscape:connector-curvature="0"
     style="fill:#ffffff;stroke-width:0.06274255" /><g
     id="g4"
     transform="translate(0,-463.33899)" /><g
     id="g6"
     transform="translate(0,-463.33899)" /><g
     id="g8"
     transform="translate(0,-463.33899)" /><g
     id="g10"
     transform="translate(0,-463.33899)" /><g
     id="g12"
     transform="translate(0,-463.33899)" /><g
     id="g14"
     transform="translate(0,-463.33899)" /><g
     id="g16"
     transform="translate(0,-463.33899)" /><g
     id="g18"
     transform="translate(0,-463.33899)" /><g
     id="g20"
     transform="translate(0,-463.33899)" /><g
     id="g22"
     transform="translate(0,-463.33899)" /><g
     id="g24"
     transform="translate(0,-463.33899)" /><g
     id="g26"
     transform="translate(0,-463.33899)" /><g
     id="g28"
     transform="translate(0,-463.33899)" /><g
     id="g30"
     transform="translate(0,-463.33899)" /><g
     id="g32"
     transform="translate(0,-463.33899)" /></svg>