<?xml version="1.0" encoding="UTF-8" standalone="no"?>
<!-- Generator: Adobe Illustrator 18.0.0, SVG Export Plug-In . SVG Version: 6.00 Build 0)  -->

<svg
   xmlns:dc="http://purl.org/dc/elements/1.1/"
   xmlns:cc="http://creativecommons.org/ns#"
   xmlns:rdf="http://www.w3.org/1999/02/22-rdf-syntax-ns#"
   xmlns:svg="http://www.w3.org/2000/svg"
   xmlns="http://www.w3.org/2000/svg"
   xmlns:sodipodi="http://sodipodi.sourceforge.net/DTD/sodipodi-0.dtd"
   xmlns:inkscape="http://www.inkscape.org/namespaces/inkscape"
   version="1.1"
   id="Capa_1"
   x="0px"
   y="0px"
   viewBox="0 0 32.000001 32.000001"
   xml:space="preserve"
   sodipodi:docname="pencil-drawing.svg"
   width="32"
   height="32"
   inkscape:version="0.92.1 r15371"
   inkscape:export-filename="C:\Users\Ben0bi\Desktop\becal\img\edit.png"
   inkscape:export-xdpi="102"
   inkscape:export-ydpi="102"><metadata
     id="metadata39"><rdf:RDF><cc:Work
         rdf:about=""><dc:format>image/svg+xml</dc:format><dc:type
           rdf:resource="http://purl.org/dc/dcmitype/StillImage" /><dc:title /></cc:Work></rdf:RDF></metadata><defs
     id="defs37" /><sodipodi:namedview
     pagecolor="#ffffff"
     bordercolor="#666666"
     borderopacity="1"
     objecttolerance="10"
     gridtolerance="10"
     guidetolerance="10"
     inkscape:pageopacity="0"
     inkscape:pageshadow="2"
     inkscape:window-width="1366"
     inkscape:window-height="705"
     id="namedview35"
     showgrid="false"
     borderlayer="true"
     inkscape:zoom="9.0543639"
     inkscape:cx="13.894583"
     inkscape:cy="15.372727"
     inkscape:window-x="-8"
     inkscape:window-y="-8"
     inkscape:window-maximized="1"
     inkscape:current-layer="Capa_1" /><path
     d="M 13.342206,24.153447 27.681266,9.8156289 c 0.34861,-0.348817 0.34861,-0.914106 0,-1.262819 L 22.577734,3.447674 C 22.41,3.280457 22.183026,3.1860871 21.946169,3.1860871 c -0.237167,0 -0.463106,0.09437 -0.63084,0.2615869 L 6.9762179,17.787097 c -0.096802,0.09639 -0.1692347,0.213212 -0.2136262,0.342505 L 4.10497,25.890341 c -0.1101496,0.322483 -0.025762,0.67963 0.2144541,0.920366 0.1685621,0.169339 0.3957434,0.259879 0.6275293,0.260759 0.028405,0.05386 0.07083,0.104303 0.1334834,0.147763 0.459071,0.32031 0.939561,0.568548 1.4293637,0.786003 2.2823147,1.011735 4.8472745,0.978364 7.3264505,0.424716 1.87669,-0.420162 3.655594,-1.165707 5.484634,-1.747344 2.489886,-0.792263 5.201987,-1.172744 7.788677,-1.476496 0.57248,-0.06757 0.477385,-0.955497 -0.0952,-0.888289 -3.518799,0.413903 -6.973185,1.11935 -10.310177,2.313564 C 13.896991,27.634789 10.6761,28.43533 7.8006096,27.562924 7.1866354,27.377288 6.5891145,27.111977 6.0149274,26.759021 l 6.9859116,-2.391947 c 0.127741,-0.04465 0.246272,-0.117291 0.341367,-0.213627 z M 12.887378,22.08362 11.93954,21.136455 24.841475,8.2386049 25.786313,9.1840639 Z M 21.946169,5.3423165 22.893128,6.2893272 9.9927971,19.190178 9.0456305,18.242649 Z M 7.9316616,24.214705 6.9144946,23.197952 8.0784942,19.800115 11.32867,23.051119 Z"
     id="path2"
     inkscape:connector-curvature="0"
     style="fill:#ffffff;stroke-width:0.05173792" /><g
     id="g4"
     transform="translate(0,-463.33899)" /><g
     id="g6"
     transform="translate(0,-463.33899)" /><g
     id="g8"
     transform="translate(0,-463.33899)" /><g
     id="g10"
     transform="translate(0,-463.33899)" /><g
     id="g12"
     transform="translate(0,-463.33899)" /><g
     id="g14"
     transform="translate(0,-463.33899)" /><g
     id="g16"
     transform="translate(0,-463.33899)" /><g
     id="g18"
     transform="translate(0,-463.33899)" /><g
     id="g20"
     transform="translate(0,-463.33899)" /><g
     id="g22"
     transform="translate(0,-463.33899)" /><g
     id="g24"
     transform="translate(0,-463.33899)" /><g
     id="g26"
     transform="translate(0,-463.33899)" /><g
     id="g28"
     transform="translate(0,-463.33899)" /><g
     id="g30"
     transform="translate(0,-463.33899)" /><g
     id="g32"
     transform="translate(0,-463.33899)" /></svg>