<?xml version="1.0" encoding="UTF-8" standalone="no"?>
<!-- Generator: Adobe Illustrator 18.0.0, SVG Export Plug-In . SVG Version: 6.00 Build 0)  -->

<svg
   xmlns:dc="http://purl.org/dc/elements/1.1/"
   xmlns:cc="http://creativecommons.org/ns#"
   xmlns:rdf="http://www.w3.org/1999/02/22-rdf-syntax-ns#"
   xmlns:svg="http://www.w3.org/2000/svg"
   xmlns="http://www.w3.org/2000/svg"
   xmlns:sodipodi="http://sodipodi.sourceforge.net/DTD/sodipodi-0.dtd"
   xmlns:inkscape="http://www.inkscape.org/namespaces/inkscape"
   version="1.1"
   id="Capa_1"
   x="0px"
   y="0px"
   viewBox="0 0 32.000001 32.000001"
   xml:space="preserve"
   sodipodi:docname="settings_drawing.svg"
   width="32"
   height="32"
   inkscape:version="0.92.4 (5da689c313, 2019-01-14)"
   inkscape:export-filename="C:\Users\okiwa\Desktop\ARBEIT\BeCal\img\settings.png"
   inkscape:export-xdpi="102"
   inkscape:export-ydpi="102"><metadata
     id="metadata39"><rdf:RDF><cc:Work
         rdf:about=""><dc:format>image/svg+xml</dc:format><dc:type
           rdf:resource="http://purl.org/dc/dcmitype/StillImage" /><dc:title></dc:title></cc:Work></rdf:RDF></metadata><defs
     id="defs37" /><sodipodi:namedview
     pagecolor="#ffffff"
     bordercolor="#666666"
     borderopacity="1"
     objecttolerance="10"
     gridtolerance="10"
     guidetolerance="10"
     inkscape:pageopacity="0"
     inkscape:pageshadow="2"
     inkscape:window-width="1827"
     inkscape:window-height="1046"
     id="namedview35"
     showgrid="false"
     borderlayer="true"
     inkscape:zoom="18.108728"
     inkscape:cx="11.0218"
     inkscape:cy="15.466798"
     inkscape:window-x="82"
     inkscape:window-y="-11"
     inkscape:window-maximized="1"
     inkscape:current-layer="layer3" /><g
     inkscape:groupmode="layer"
     id="layer4"
     inkscape:label="BG"
     style="display:inline"
     sodipodi:insensitive="true"><rect
       style="display:inline"
       id="rect3763"
       width="49.589348"
       height="47.93269"
       x="-7.565413"
       y="-7.2076139" /></g><g
     id="g4"
     transform="translate(0,-463.33899)" /><g
     id="g6"
     transform="translate(0,-463.33899)" /><g
     id="g8"
     transform="translate(0,-463.33899)" /><g
     id="g10"
     transform="translate(0,-463.33899)" /><g
     id="g12"
     transform="translate(0,-463.33899)" /><g
     id="g14"
     transform="translate(0,-463.33899)" /><g
     id="g16"
     transform="translate(0,-463.33899)" /><g
     id="g18"
     transform="translate(0,-463.33899)" /><g
     id="g20"
     transform="translate(0,-463.33899)" /><g
     id="g22"
     transform="translate(0,-463.33899)" /><g
     id="g24"
     transform="translate(0,-463.33899)" /><g
     id="g26"
     transform="translate(0,-463.33899)" /><g
     id="g28"
     transform="translate(0,-463.33899)" /><g
     id="g30"
     transform="translate(0,-463.33899)" /><g
     id="g32"
     transform="translate(0,-463.33899)" /><g
     inkscape:groupmode="layer"
     id="layer3"
     inkscape:label="Teil"
     style="display:inline"><path
       style="fill:#ffffff;stroke:none;stroke-width:1;stroke-linecap:butt;stroke-linejoin:miter;stroke-miterlimit:4;stroke-dasharray:none;stroke-opacity:1"
       d="M 22.187073,12.65928 5.4447847,31.149682 1.8081777,27.934139 18.691024,9.6499293 12.373508,3.5522129 l 1.461625,-1.4903835 5.475197,0.3169388 3.734108,2.7494728 1.141023,-1.0868935 3.103068,2.8817066 -1.19605,1.1811648 5.179494,4.7258771 -4.30897,4.180682 z"
       id="path830"
       inkscape:connector-curvature="0"
       sodipodi:nodetypes="cccccccccccccc" /><g
       id="g838"
       transform="matrix(0.0018929,0.00192492,0.00219162,-0.00161235,-5.448601,8.7403146)"
       style="fill:#ffffff;stroke:#ff0000;stroke-opacity:1"><path
         id="path836"
         d="m 5907,3061 c -9,-16 -33,-36 -53,-46 -35,-17 -40,-16 -198,16 -88,18 -202,34 -252,37 -90,4 -91,4 -113,-24 l -22,-29 -18,24 -18,24 -22,-69 c -58,-181 -175,-320 -351,-418 l -65,-36 h 161 c 88,0 163,-2 166,-5 3,-4 2,-23 -3,-43 -4,-20 -15,-84 -23,-141 -23,-153 -6,-174 177,-231 234,-73 287,-131 366,-404 22,-75 45,-144 51,-156 13,-24 47,-42 122,-64 116,-33 167,-20 308,82 182,132 295,172 480,172 146,0 302,-32 460,-93 132,-51 395,-136 519,-167 46,-12 111,-35 144,-52 80,-40 217,-89 369,-132 68,-19 157,-50 199,-69 92,-42 227,-86 369,-121 58,-14 134,-38 170,-54 92,-42 266,-97 417,-131 70,-16 167,-41 214,-54 95,-27 281,-60 434,-77 55,-6 118,-15 140,-21 22,-5 193,-14 380,-19 372,-10 478,-4 690,35 72,14 195,34 275,45 415,58 728,125 1013,216 144,46 238,96 302,159 122,119 132,228 49,503 -62,203 -70,212 -206,212 -46,0 -138,7 -203,16 -151,20 -208,14 -337,-35 -418,-158 -831,-235 -1323,-248 -469,-11 -894,43 -1311,166 -56,17 -452,161 -880,322 -428,160 -840,313 -914,341 -74,27 -299,111 -500,185 -677,251 -1122,413 -1134,413 -6,0 -19,-13 -29,-29 z"
         inkscape:connector-curvature="0"
         style="fill:#ffffff;stroke:#ff0000;stroke-opacity:1" /><path
         id="path834"
         d="m 10160,5643 c -19,-2 -80,-10 -135,-18 -55,-8 -156,-22 -225,-31 -148,-18 -278,-44 -392,-78 -46,-13 -119,-32 -163,-42 -123,-26 -330,-90 -414,-128 -42,-19 -128,-47 -191,-62 -131,-30 -290,-84 -363,-121 -27,-13 -104,-40 -171,-58 -149,-41 -274,-85 -386,-135 -47,-21 -158,-59 -248,-84 -90,-26 -238,-74 -330,-107 -303,-110 -475,-143 -637,-120 -146,20 -228,57 -393,176 -93,67 -153,95 -200,95 -52,0 -186,-43 -208,-67 -12,-13 -32,-60 -44,-106 -36,-133 -85,-261 -119,-311 -47,-68 -116,-109 -264,-157 -87,-28 -140,-51 -161,-70 -41,-36 -40,-63 7,-333 2,-12 -260,-22 -615,-25 l -198,-1 -65,-31 c -186,-88 -318,-246 -374,-449 -12,-41 -21,-96 -21,-122 0,-26 -5,-50 -11,-54 -9,-5 -10,10 -5,57 27,243 154,441 360,558 31,18 56,33 56,34 0,1 -143,-1 -317,-4 -175,-4 -402,-7 -505,-8 l -188,-1 v -35 c 0,-19 -4,-35 -10,-35 -47,0 -3206,-472 -3216,-481 -17,-14 -20,-164 -4,-174 6,-4 727,-112 1603,-241 876,-128 1599,-235 1607,-236 9,-2 16,-16 18,-36 l 3,-32 h 87 c 48,-1 386,-7 752,-14 655,-14 665,-14 715,6 270,106 452,392 432,682 -5,69 -3,83 16,112 l 21,32 35,-30 c 33,-29 36,-30 105,-23 39,4 139,20 221,36 207,40 219,39 270,-15 l 42,-43 269,99 c 287,105 827,305 1139,420 105,39 467,174 805,300 338,127 729,272 867,324 291,108 471,162 679,205 491,99 1011,113 1509,39 302,-45 488,-94 855,-226 69,-24 82,-26 175,-20 55,4 165,10 245,14 206,10 201,5 270,242 36,122 43,160 44,240 1,85 -2,100 -25,145 -36,68 -121,146 -205,188 -117,59 -418,147 -684,201 -105,21 -344,61 -550,91 -96,14 -195,30 -220,35 -156,33 -255,39 -581,38 -184,-1 -350,-3 -369,-5 z M 3280,3230 c 0,-20 7,-20 271,-20 177,0 268,-3 264,-10 -4,-6 -105,-10 -269,-10 -258,0 -264,0 -269,-21 -5,-20 -9,-20 -214,-14 -114,3 -487,10 -828,15 -1015,16 -1880,32 -1882,34 -2,2 349,8 780,15 430,8 946,17 1147,21 201,3 508,7 683,8 311,2 317,2 317,-18 z"
         inkscape:connector-curvature="0"
         style="fill:#ffffff;stroke:#ff0000;stroke-opacity:1;stroke-width:1.11258405;stroke-miterlimit:4;stroke-dasharray:none" /></g></g></svg>